<svg width="1440" height="915" viewBox="0 0 1440 915" fill="none" xmlns="http://www.w3.org/2000/svg">
<path d="M177.704 689.816C177.704 701.888 168.938 711.675 158.125 711.675C147.312 711.675 138.547 701.888 138.547 689.816C138.547 677.743 147.312 667.956 158.125 667.956C168.938 667.956 177.704 677.743 177.704 689.816Z" fill="#2D9CDB"/>
<path d="M129.792 705.954L176.671 700.234L186.459 705.954L162.507 712.888L135.05 717.956L129.792 705.954Z" fill="#2D9CDB"/>
<path d="M175.785 691.385L180.549 679.944L177.614 672.897L172.849 684.337L175.785 691.385Z" fill="#2D9CDB"/>
<path d="M172.849 684.337L167.783 698.739L169.786 703.549L175.785 691.385L172.849 684.337Z" fill="#2D9CDB"/>
<path d="M181.268 678.218C182.079 676.272 182.079 673.116 181.268 671.17C180.458 669.223 179.144 669.223 178.333 671.17L177.614 672.897L180.549 679.944L181.268 678.218Z" fill="#2D9CDB"/>
<path d="M169.786 703.549C169.574 703.039 167.989 699.233 167.783 698.739L165.13 702.87L165.137 709.902L168.066 709.918L169.786 703.549Z" fill="#2D9CDB"/>
<path d="M181.618 670.331C180.616 667.925 178.985 667.925 177.984 670.331C170.584 688.097 174.024 679.157 167.453 697.839L164.861 701.875C164.721 702.094 164.636 702.47 164.636 702.873L164.643 709.901C164.643 709.902 164.643 709.902 164.643 709.902V709.904C164.644 710.561 164.866 711.087 165.136 711.088L168.065 711.105C168.065 711.105 168.065 711.105 168.066 711.105C168.233 711.105 168.389 710.901 168.48 710.564L170.161 704.343C177.888 688.672 174.166 696.948 181.618 679.057C182.62 676.651 182.62 672.737 181.618 670.331ZM175.785 689.707L173.548 684.337L177.614 674.574L179.85 679.944L175.785 689.707ZM167.798 708.73L166.328 708.722L167.569 705.742C167.762 705.278 167.762 704.527 167.569 704.064C167.376 703.6 167.063 703.6 166.87 704.064L165.629 707.044L165.625 703.514L167.716 700.257L169.154 703.709L167.798 708.73ZM169.815 701.939L168.454 698.671L172.88 686.088L175.055 691.311L169.815 701.939ZM180.919 677.379L180.549 678.266L178.313 672.896L178.683 672.009C179.301 670.525 180.301 670.525 180.919 672.009C181.535 673.489 181.535 675.898 180.919 677.379Z" fill="#2D9CDB"/>
<path d="M140.892 690.61L137.968 695.799L148.46 707.244H131.519L140.892 690.61Z" fill="#2D9CDB"/>
<g clip-path="url(#clip0)">
<path d="M724.621 915C1115.09 915 1431.63 890.513 1431.63 860.307C1431.63 830.101 1115.09 805.614 724.621 805.614C334.153 805.614 17.6161 830.101 17.6161 860.307C17.6161 890.513 334.153 915 724.621 915Z" fill="#F2F2F2"/>
<path d="M697.523 261.564C582.333 261.564 499.627 347.921 499.627 549.421C499.627 777.788 582.333 838.238 697.523 838.238C812.713 838.238 900.345 772.031 900.345 549.421C900.345 311.459 812.713 261.564 697.523 261.564ZM698.28 762.436C618.497 762.436 576.815 707.741 576.815 549.569C576.815 410.005 620.203 336.407 699.986 336.407C779.77 336.407 823.158 384.751 823.158 549.569C823.158 703.753 778.064 762.436 698.28 762.436Z" fill="#DC3545"/>
<path d="M425.817 566.437L385.021 595.154L312.652 454.776C308.808 447.32 302.587 441.953 295.357 439.857C288.127 437.761 280.481 439.106 274.1 443.598L264.541 450.327C261.381 452.551 258.627 455.48 256.437 458.948C254.246 462.415 252.662 466.353 251.773 470.536C250.885 474.72 250.711 479.066 251.26 483.328C251.809 487.59 253.072 491.684 254.975 495.376L327.344 635.754L212.272 716.756C209.905 718.422 207.209 719.345 204.447 719.436C201.684 719.526 198.949 718.78 196.505 717.271C194.062 715.762 191.994 713.541 190.502 710.822C189.01 708.104 188.144 704.981 187.989 701.757L170.919 346.67C170.707 342.243 169.728 337.912 168.044 333.939C166.359 329.966 164.003 326.433 161.117 323.554C158.232 320.674 154.877 318.508 151.255 317.185C147.633 315.862 143.82 315.411 140.045 315.858L130.81 316.951C123.639 317.801 117.022 321.839 112.328 328.23C107.634 334.621 105.222 342.876 105.592 351.286L124.443 780.545C124.764 787.854 126.623 794.959 129.855 801.228C132.436 806.234 135.835 810.598 139.859 814.069C143.883 817.54 148.452 820.051 153.307 821.458C158.161 822.865 163.205 823.142 168.151 822.271C173.096 821.401 177.847 819.401 182.131 816.385L357.004 693.288L402.765 782.055C405.047 786.48 408.052 790.337 411.609 793.405C415.166 796.474 419.205 798.693 423.496 799.937C427.787 801.182 432.246 801.426 436.618 800.657C440.99 799.887 445.189 798.119 448.976 795.453C452.763 792.787 456.064 789.276 458.69 785.12C461.316 780.963 463.215 776.243 464.28 771.229C465.345 766.215 465.554 761.005 464.895 755.896C464.237 750.787 462.724 745.88 460.442 741.455L414.681 652.688L455.477 623.971C462.006 619.375 466.705 611.937 468.541 603.292C470.377 594.647 469.198 585.504 465.265 577.875C461.332 570.245 454.966 564.754 447.568 562.609C440.17 560.464 432.346 561.841 425.817 566.437Z" fill="#008736"/>
<path d="M1287.57 773.751L1246.3 745.974L1316.3 603.965C1320.01 596.422 1321.02 587.462 1319.08 579.057C1317.14 570.651 1312.43 563.488 1305.98 559.144L1296.31 552.635C1293.11 550.484 1289.58 549.089 1285.92 548.531C1282.27 547.973 1278.55 548.262 1274.99 549.382C1271.43 550.501 1268.09 552.43 1265.17 555.057C1262.24 557.684 1259.79 560.959 1257.95 564.694L1187.95 706.703L1071.54 628.353C1069.15 626.741 1067.15 624.433 1065.74 621.654C1064.33 618.874 1063.57 615.716 1063.51 612.488C1063.46 609.259 1064.12 606.069 1065.43 603.226C1066.74 600.383 1068.66 597.985 1071 596.264L1328.52 406.704C1331.73 404.34 1334.5 401.241 1336.65 397.594C1338.81 393.946 1340.31 389.825 1341.07 385.48C1341.83 381.135 1341.82 376.656 1341.06 372.313C1340.29 367.971 1338.78 363.854 1336.62 360.212L1331.32 351.304C1327.21 344.386 1320.98 339.58 1313.92 337.881C1306.86 336.181 1299.51 337.717 1293.4 342.171L981.221 569.503C975.905 573.375 971.488 578.718 968.362 585.06C963.32 595.288 961.962 607.437 964.586 618.835C967.211 630.233 973.602 639.946 982.355 645.837L1159.26 764.905L1115 854.703C1110.54 863.744 1109.34 874.483 1111.66 884.559C1113.98 894.634 1119.63 903.22 1127.37 908.428C1135.1 913.636 1144.29 915.038 1152.92 912.328C1161.54 909.617 1168.89 903.015 1173.34 893.974L1217.61 804.176L1258.88 831.953C1265.48 836.399 1273.33 837.596 1280.69 835.282C1288.05 832.968 1294.32 827.332 1298.12 819.614C1301.93 811.896 1302.95 802.728 1300.97 794.127C1298.99 785.526 1294.17 778.197 1287.57 773.751Z" fill="#008736"/>
<path d="M631.467 48.7885C641.017 48.7885 648.758 39.7422 648.758 28.5831C648.758 17.424 641.017 8.37781 631.467 8.37781C621.917 8.37781 614.176 17.424 614.176 28.5831C614.176 39.7422 621.917 48.7885 631.467 48.7885Z" fill="#2F2E41"/>
<path d="M673.641 146.858C700.427 146.858 722.141 113.983 722.141 73.4291C722.141 32.8753 700.427 0 673.641 0C646.855 0 625.141 32.8753 625.141 73.4291C625.141 113.983 646.855 146.858 673.641 146.858Z" fill="#2F2E41"/>
<path opacity="0.1" d="M673.641 124.682C649.345 124.682 629.222 97.6332 625.691 62.3408C625.324 66.0213 625.14 69.7237 625.141 73.4291C625.141 113.983 646.855 146.858 673.641 146.858C700.427 146.858 722.141 113.983 722.141 73.4291C722.142 69.7237 721.958 66.0213 721.591 62.3408C718.06 97.6332 697.937 124.682 673.641 124.682Z" fill="black"/>
<path d="M772.333 288.469C771.292 293.471 766.801 297.476 761.827 300.275C751.37 306.159 738.472 307.914 725.961 308.504C722.77 308.73 719.568 308.661 716.385 308.297C710.219 307.6 704.434 304.493 699.966 299.477C699.647 299.234 699.386 298.901 699.207 298.508C699.029 298.116 698.938 297.676 698.944 297.231C698.95 296.787 699.052 296.351 699.241 295.965C699.43 295.579 699.7 295.255 700.025 295.023C706.685 286.474 717.8 281.232 728.997 277.457C737.487 274.595 752.293 267.182 761.553 268.182C770.522 269.151 773.648 282.154 772.333 288.469Z" fill="#3F3D56"/>
<path opacity="0.1" d="M772.333 288.469C771.292 293.471 766.801 297.476 761.827 300.275C751.37 306.159 738.472 307.914 725.961 308.504C722.77 308.73 719.568 308.661 716.385 308.297C710.219 307.6 704.434 304.493 699.966 299.477C699.647 299.234 699.386 298.901 699.207 298.508C699.029 298.116 698.938 297.676 698.944 297.231C698.95 296.787 699.052 296.351 699.241 295.965C699.43 295.579 699.7 295.255 700.025 295.023C706.685 286.474 717.8 281.232 728.997 277.457C737.487 274.595 752.293 267.182 761.553 268.182C770.522 269.151 773.648 282.154 772.333 288.469Z" fill="black"/>
<path d="M639.379 251.089C636.187 258.399 635.609 266.891 637.772 274.699C639.972 282.447 644.091 289.259 649.606 294.271C663.136 306.944 681.756 308.687 699.096 308.511C714.292 308.357 729.467 307.142 744.539 304.872C749.589 304.349 754.553 303.002 759.284 300.871C764.943 298.01 769.916 292.762 771.931 285.953C773.945 279.143 772.515 270.804 767.731 266.259C763.526 262.266 757.728 261.717 752.32 261.337L721.376 259.164C724.433 255.549 728.504 253.504 732.227 250.876C737.166 247.389 740.448 241.534 744.039 236.256C749.573 228.528 755.593 221.295 762.051 214.616C763.058 221.367 766.712 226.91 771.014 231.568C775.315 236.226 780.273 239.976 784.743 244.411C795.571 255.152 803.368 269.731 814.755 279.65C822.589 277.245 829.912 272.973 836.265 267.102L831.839 257.734C831.471 256.77 830.896 255.933 830.171 255.302C828.919 254.402 827.303 254.866 825.849 254.611C821.961 253.93 820.263 248.684 818.737 244.451C814.549 232.827 806.53 223.809 799.681 214.061C794.626 206.866 790.142 199.148 786.284 191.003C783.983 186.145 781.877 181.087 778.755 176.902C775.633 172.717 771.258 169.427 766.507 169.415C762.309 169.405 758.437 171.895 754.827 174.4C743.834 182.031 733.256 190.452 723.156 199.614C717.87 204.409 712.617 209.475 706.416 212.416C703.806 213.653 701.055 214.499 698.55 216.006C694.163 218.644 690.834 223.107 687.25 227.069C674.466 241.201 656.965 250.357 639.379 251.089Z" fill="#3F3D56"/>
<path d="M704.082 150.505C703.939 154.825 703.152 159.082 701.758 163.086C701.052 165.084 700.001 166.889 698.671 168.391C697.341 169.893 695.761 171.058 694.028 171.814C691.568 172.584 688.989 172.682 686.492 172.1C684.314 171.834 682.215 170.999 680.351 169.656C677.449 167.325 676.003 163.165 675.476 159.095C674.949 155.029 675.185 150.875 674.847 146.779C674.519 143.471 673.98 140.197 673.236 136.982C673.009 135.913 672.777 134.848 672.549 133.784C672.325 132.719 672.106 131.655 671.904 130.59C671.718 129.59 671.545 128.585 671.397 127.574C671.275 126.722 671.166 125.864 671.085 125.002C671.012 122.445 670.647 119.911 670.002 117.467C669.396 115.881 668.637 114.382 667.741 112.997C667.357 112.356 666.986 111.716 666.644 111.05C665.656 109.321 665.197 107.253 665.341 105.181C665.382 104.861 665.448 104.546 665.54 104.24C665.573 104.121 665.611 104.003 665.653 103.89C666.033 103.77 666.381 103.543 666.669 103.229C666.956 102.916 667.174 102.525 667.302 102.091C667.447 101.159 667.379 100.198 667.104 99.3066C666.789 98.0609 666.358 96.8594 665.818 95.7239C665.464 94.9748 664.262 93.6245 664.253 92.7669C664.236 91.0421 667.121 89.6524 668.289 88.9723C671.855 86.8857 675.831 85.9435 679.811 86.2421C682.363 86.4441 685.129 87.3608 686.538 89.8593C687.803 92.1115 687.634 95.0289 688.174 97.6458C688.231 98.0262 688.369 98.3837 688.575 98.6856C688.85 98.9787 689.196 99.1646 689.566 99.2178C690.191 99.3631 690.831 99.393 691.464 99.3066H691.468C691.635 99.2911 691.802 99.2631 691.966 99.2228C692.951 99.0104 693.882 98.5403 694.69 97.8478C695.213 97.6852 695.74 97.5521 696.272 97.4486C696.293 97.4461 696.314 97.4411 696.335 97.4339C698.448 105.225 698.722 113.578 700.451 121.513C701.307 125.46 702.535 129.358 702.708 133.419C702.72 133.596 702.724 133.779 702.729 133.961C702.754 135.267 702.665 136.583 702.712 137.884C702.728 138.47 702.784 139.053 702.88 139.628C703.07 140.554 703.305 141.465 703.585 142.359L703.597 142.403C703.677 142.689 703.753 142.98 703.817 143.27C703.863 143.482 703.905 143.689 703.939 143.901L703.943 143.916C704.255 146.094 704.302 148.312 704.082 150.505V150.505Z" fill="#FBBEBE"/>
<path d="M674.485 99.5481C688.227 99.5481 699.367 86.5304 699.367 70.4722C699.367 54.414 688.227 41.3962 674.485 41.3962C660.742 41.3962 649.602 54.414 649.602 70.4722C649.602 86.5304 660.742 99.5481 674.485 99.5481Z" fill="#FBBEBE"/>
<path d="M832.46 228.892C831.739 220.959 829.326 213.365 825.442 206.804C826.088 211.289 826.734 215.771 827.382 220.253C826.577 220.525 825.721 220.517 824.919 220.229C824.117 219.941 823.405 219.386 822.87 218.631C821.822 217.103 821.02 215.364 820.504 213.501C817.677 205.301 813.98 197.547 809.501 190.423C793.66 188.88 778.001 181.207 764.071 172.263C750.136 163.323 737.096 152.604 723.347 143.285C720.964 141.602 718.481 140.119 715.916 138.85C711.615 136.834 706.786 135.79 702.707 133.419C702.433 133.261 702.159 133.094 701.889 132.921C700.968 132.336 700.095 131.651 699.283 130.876C698.844 130.46 698.427 130.012 698.035 129.536C696 126.77 694.386 123.616 693.265 120.212C691.076 114.554 690.296 107.729 688.111 102.071C689.115 100.975 690.243 100.045 691.464 99.3066H691.468C691.645 99.1982 691.822 99.0947 692.004 98.9962C692.868 98.5205 693.767 98.1362 694.69 97.8479C695.213 97.6853 695.74 97.5522 696.272 97.4487C696.293 97.4462 696.314 97.4412 696.335 97.4339C698.799 96.9648 701.324 97.1981 703.694 98.114C707.161 99.484 710.084 102.219 712.998 104.806C717.732 108.704 722.273 112.913 726.599 117.413C729.003 120.103 731.196 123.06 733.781 125.505C735.93 127.442 738.195 129.196 740.559 130.753C754.548 140.491 768.538 150.227 782.53 159.962C787.266 163.259 792.007 166.556 796.638 170.045C803.672 175.348 810.454 181.094 817.231 186.835C821.225 190.216 825.217 193.598 829.209 196.982C830.518 197.958 831.668 199.2 832.603 200.649C833.43 202.294 833.944 204.127 834.109 206.025C835.111 213.693 834.546 221.528 832.46 228.892V228.892Z" fill="#FBBEBE"/>
<path d="M710.252 172.371C708.574 181.168 700.966 186.485 696.989 194.213C692.046 203.803 694.062 214.95 695.917 225.935C692.527 229.35 689.134 232.765 685.741 236.18C683.868 238.058 681.996 239.946 679.98 241.606C677.04 243.908 673.968 245.969 670.786 247.776C667.783 249.58 664.78 251.385 661.778 253.192C658.986 255.026 656.028 256.491 652.959 257.559C647.042 259.333 640.758 258.091 634.904 256.036C634.214 255.824 633.55 255.508 632.931 255.095C632.565 254.84 632.247 254.503 631.994 254.104C631.417 252.895 631.208 251.493 631.4 250.127C631.994 238.615 634.402 227.344 636.802 216.157C638.085 209.446 639.809 202.861 641.96 196.46C644.07 190.975 646.495 185.664 649.218 180.562C652.224 174.142 655.785 168.1 659.846 162.53C661.823 160.386 663.487 157.879 664.772 155.108C666.269 151.116 665.691 146.538 665.995 142.191C666.227 138.925 666.969 135.737 668.184 132.783V132.778C668.834 131.188 669.616 129.675 670.52 128.264C670.929 129.378 671.338 130.49 671.748 131.601C672.017 132.33 672.285 133.058 672.549 133.784C672.895 134.72 673.238 135.653 673.578 136.583C674.56 139.254 675.542 141.924 676.522 144.591C677.581 147.951 679.09 151.094 680.992 153.901C681.862 155.338 683.036 156.487 684.399 157.236C685.762 157.985 687.268 158.308 688.77 158.173C690.272 158.039 691.719 157.451 692.969 156.468C694.218 155.485 695.229 154.14 695.901 152.565C697.318 149.624 698.345 146.449 698.946 143.147C699.778 139.128 699.893 134.95 699.283 130.876C698.267 123.031 695.411 115.018 693.336 107.729C692.492 105.299 692.003 102.72 691.89 100.1C691.894 99.8057 691.919 99.5123 691.966 99.2229C691.978 99.149 691.991 99.0701 692.004 98.9962C692.868 98.5205 693.767 98.1363 694.69 97.848C695.213 97.6853 695.74 97.5523 696.272 97.4488C698.098 109 699.927 120.552 701.759 132.103C701.801 132.374 701.847 132.645 701.889 132.921C702.151 134.577 702.417 136.233 702.712 137.884C702.977 139.382 703.264 140.875 703.585 142.359L703.597 142.403C703.707 142.906 703.821 143.404 703.939 143.901L703.943 143.916C704.268 145.276 704.631 146.627 705.04 147.957C707.52 155.975 711.842 164.047 710.252 172.371Z" fill="#FFFB00"/>
<path d="M811.236 295.993C811.157 297.687 811.438 299.378 812.053 300.916C813.611 304.242 817.347 304.998 820.581 305.309C839.468 307.123 858.471 306.446 877.229 303.292C878.247 303.21 879.234 302.852 880.112 302.246C882.779 300.061 881.136 294.736 878.223 293.032C875.311 291.327 871.855 291.738 868.66 290.999C865.485 290.066 862.462 288.534 859.71 286.464C853.229 282.113 846.844 277.577 840.553 272.857C836.807 270.046 832.387 267.046 828.169 268.713C816.742 273.23 811.16 281.59 811.236 295.993Z" fill="#3F3D56"/>
<path d="M672.001 129.974V129.979C671.971 130.186 671.941 130.388 671.904 130.59C671.857 130.926 671.802 131.266 671.748 131.601C671.225 134.73 670.584 137.844 669.845 140.939C667.821 149.49 665.109 157.902 662.419 166.191C655.198 188.417 647.977 210.644 640.754 232.874C638.932 238.472 637.114 244.075 635.043 249.56C634.352 251.389 633.639 253.232 632.93 255.094C630.392 261.762 627.954 268.647 627.144 275.743C626.389 280.414 626.302 285.198 626.887 289.902C627.697 294.554 630.113 299.098 633.896 300.818C635.744 301.66 638.388 302.789 637.882 305.031C637.608 306.263 636.41 306.864 635.334 307.071C633.914 307.336 632.462 307.232 631.08 306.767C629.698 306.302 628.42 305.487 627.338 304.381C625.318 302.286 623.766 299.029 621.08 298.679C619.22 298.442 617.507 299.743 615.804 300.655C608.853 304.366 600.756 301.769 593.456 299.132C594.029 295.678 596.998 293.401 599.946 292.711C602.894 292.016 605.943 292.509 608.95 292.415C609.913 292.475 610.869 292.188 611.687 291.592C612.421 290.805 612.935 289.778 613.163 288.645C615.1 281.939 616.541 275.05 617.47 268.055C618.439 260.747 618.844 253.325 620.228 246.106C621.303 240.473 622.965 235.017 624.39 229.488C627.147 218.103 629.41 206.563 631.172 194.912C632.062 190.072 632.7 185.172 633.082 180.241C633.323 176.151 633.209 172.041 633.546 167.965C634.112 162.663 635.059 157.426 636.376 152.309C637.667 146.725 638.956 141.145 640.243 135.568C642.154 127.313 644.204 118.738 649.045 112.322C650.727 110.063 652.787 108.232 655.099 106.941C657.411 105.651 659.926 104.93 662.486 104.821C663.446 104.82 664.403 104.94 665.341 105.181C665.497 105.225 665.653 105.27 665.809 105.319C666.831 105.631 667.812 106.105 668.724 106.728C670.217 105.62 670.976 106.009 671.967 107.719C672.836 109.529 673.245 111.59 673.148 113.662C673.231 119.131 672.847 124.595 672.001 129.974Z" fill="#FBBEBE"/>
<path d="M673.641 136.509L673.578 136.583L673.236 136.982L669.845 140.94L668.184 132.784L662.486 104.821C663.446 104.82 664.403 104.941 665.341 105.181C665.382 104.861 665.448 104.546 665.539 104.24L665.809 105.319L667.741 112.997L671.397 127.574L672.001 129.974V129.979L673.641 136.509Z" fill="#6C63FF"/>
<path d="M695.158 47.3025C695.155 49.8917 694.716 52.4548 693.865 54.8454C693.014 57.236 691.768 59.4072 690.198 61.2348C689.63 61.9 689.021 62.5158 688.375 63.0772C685.465 65.6408 681.92 67.0284 678.275 67.0304H658.042C653.571 67.0223 649.286 64.9413 646.127 61.2443C642.968 57.5473 641.194 52.5365 641.194 47.3121C641.194 42.0878 642.968 37.077 646.127 33.38C649.286 29.6829 653.571 27.6019 658.042 27.5939H678.275C682.747 27.6075 687.031 29.6877 690.195 33.3803C693.358 37.0729 695.142 42.0779 695.158 47.3025V47.3025Z" fill="#2F2E41"/>
<path d="M714.128 48.7885C723.678 48.7885 731.42 39.7422 731.42 28.5831C731.42 17.424 723.678 8.37781 714.128 8.37781C704.578 8.37781 696.837 17.424 696.837 28.5831C696.837 39.7422 704.578 48.7885 714.128 48.7885Z" fill="#2F2E41"/>
<path opacity="0.1" d="M713.706 8.37781C713.494 8.37781 713.284 8.38765 713.074 8.3965C717.547 8.58652 721.782 10.7965 724.889 14.5615C727.996 18.3264 729.732 23.3528 729.732 28.5831C729.732 33.8134 727.996 38.8398 724.889 42.6048C721.782 46.3698 717.547 48.5797 713.074 48.7698C713.284 48.7786 713.494 48.7885 713.706 48.7885C718.292 48.7885 722.69 46.6597 725.933 42.8704C729.176 39.0812 730.998 33.9419 730.998 28.5831C730.998 23.2244 729.176 18.085 725.933 14.2958C722.69 10.5066 718.292 8.37781 713.706 8.37781V8.37781Z" fill="black"/>
<path opacity="0.1" d="M631.467 8.37781C631.679 8.37781 631.889 8.38765 632.1 8.3965C627.627 8.58652 623.391 10.7965 620.284 14.5615C617.177 18.3264 615.441 23.3528 615.441 28.5831C615.441 33.8134 617.177 38.8398 620.284 42.6048C623.391 46.3698 627.627 48.5797 632.1 48.7698C631.889 48.7786 631.679 48.7885 631.467 48.7885C626.884 48.7837 622.49 46.6529 619.25 42.8642C616.011 39.0754 614.191 33.9388 614.191 28.5831C614.191 23.2274 616.011 18.0908 619.25 14.3021C622.49 10.5134 626.884 8.38252 631.467 8.37781Z" fill="black"/>
<path opacity="0.1" d="M688.375 63.0771C685.465 65.6408 681.92 67.0284 678.275 67.0304H658.042C654.398 67.0284 650.853 65.6408 647.942 63.0771H688.375Z" fill="black"/>
<path d="M819.034 209.483C819.034 209.483 823.393 224.161 827.382 220.253L824.202 201.068L819.034 209.483Z" fill="#FBBEBE"/>
<path d="M1349.49 657.082C1353.55 658.807 1357.9 659.406 1362.19 658.833C1366.48 658.259 1370.6 656.529 1374.23 653.778C1377.85 651.026 1380.87 647.33 1383.06 642.979C1385.26 638.628 1386.55 633.742 1386.85 628.706C1387.15 623.67 1386.44 618.622 1384.79 613.959C1383.13 609.296 1380.57 605.146 1377.31 601.836C1374.05 598.527 1370.18 596.147 1365.99 594.886C1361.81 593.625 1357.43 593.516 1353.21 594.569L1353.91 611.346L1347.11 596.968C1340.45 600.628 1335.3 607.232 1332.79 615.327C1331.9 618.163 1331.36 621.132 1331.19 624.144C1330.76 631.214 1332.32 638.253 1335.62 644.197C1338.92 650.141 1343.79 654.664 1349.49 657.082V657.082Z" fill="#57B894"/>
<path d="M1383.1 851.668C1380.71 837.4 1391.1 824.75 1401.36 816.529C1411.62 808.307 1423.61 800.228 1427.12 786.275C1432.15 766.222 1417.16 747.858 1405.49 732.021C1396.83 720.268 1389.4 707.358 1383.34 693.56C1380.92 688.027 1378.69 682.244 1378.05 676.072C1377.13 667.183 1379.57 658.338 1382.03 649.859C1390.23 621.614 1399 593.606 1408.34 565.835" stroke="#3F3D56" stroke-miterlimit="10"/>
<path d="M1350.64 652.763C1354.7 654.488 1359.05 655.087 1363.34 654.513C1367.63 653.94 1371.75 652.209 1375.37 649.458C1379 646.707 1382.02 643.01 1384.21 638.659C1386.4 634.309 1387.7 629.423 1388 624.387C1388.3 619.351 1387.59 614.302 1385.94 609.639C1384.28 604.976 1381.72 600.827 1378.46 597.517C1375.2 594.207 1371.32 591.828 1367.14 590.567C1362.96 589.305 1358.58 589.197 1354.36 590.249L1355.05 607.026L1348.26 592.648C1341.59 596.309 1336.44 602.912 1333.94 611.008C1333.05 613.843 1332.51 616.812 1332.34 619.825C1331.91 626.894 1333.46 633.934 1336.77 639.878C1340.07 645.821 1344.94 650.345 1350.64 652.763Z" stroke="#3F3D56" stroke-miterlimit="10"/>
<path d="M1379.69 560.041C1381.29 554.903 1383.96 550.317 1387.47 546.705C1390.98 543.093 1395.21 540.571 1399.77 539.371L1402.07 555.321L1406.33 538.569C1412.24 538.672 1417.97 540.967 1422.69 545.124C1427.42 549.281 1430.89 555.084 1432.6 561.696C1434.32 568.307 1434.19 575.386 1432.24 581.908C1430.29 588.431 1426.62 594.06 1421.75 597.984C1416.89 601.908 1411.08 603.923 1405.17 603.738C1399.26 603.553 1393.55 601.178 1388.87 596.955C1384.19 592.733 1380.78 586.882 1379.13 580.247C1377.48 573.612 1377.68 566.536 1379.69 560.041H1379.69Z" fill="#57B894"/>
<path d="M1381.23 554.282C1382.82 549.144 1385.49 544.558 1389 540.946C1392.51 537.334 1396.74 534.812 1401.3 533.612L1403.6 549.561L1407.86 532.81C1413.77 532.913 1419.5 535.208 1424.22 539.365C1428.95 543.522 1432.42 549.325 1434.13 555.937C1435.85 562.548 1435.73 569.626 1433.78 576.149C1431.82 582.672 1428.15 588.301 1423.28 592.225C1418.42 596.149 1412.61 598.164 1406.7 597.979C1400.79 597.794 1395.08 595.419 1390.4 591.196C1385.72 586.974 1382.31 581.123 1380.66 574.488C1379.01 567.852 1379.21 560.777 1381.23 554.282H1381.23Z" stroke="#3F3D56" stroke-miterlimit="10"/>
<path d="M1400.59 732.344C1407.03 735.073 1414.11 734.938 1420.47 731.965C1426.82 728.992 1432.03 723.389 1435.08 716.223C1438.13 709.057 1438.82 700.83 1437.01 693.109C1435.2 685.389 1431.03 678.715 1425.28 674.36L1422.01 687.233L1419.69 671.096C1419.67 671.083 1419.64 671.072 1419.62 671.064C1416.17 669.601 1412.52 668.946 1408.86 669.136C1405.2 669.325 1401.6 670.356 1398.28 672.168C1394.96 673.981 1391.98 676.54 1389.51 679.7C1387.03 682.859 1385.12 686.557 1383.87 690.582C1382.62 694.608 1382.06 698.881 1382.23 703.159C1382.39 707.436 1383.27 711.634 1384.83 715.512C1386.38 719.391 1388.57 722.873 1391.28 725.761C1393.98 728.649 1397.15 730.886 1400.59 732.344H1400.59Z" fill="#57B894"/>
<path d="M1401.92 726.51C1408.36 729.24 1415.43 729.105 1421.79 726.132C1428.15 723.159 1433.35 717.555 1436.4 710.389C1439.45 703.223 1440.14 694.996 1438.34 687.276C1436.53 679.555 1432.35 672.882 1426.61 668.527L1423.34 681.4L1421.02 665.262C1420.99 665.249 1420.97 665.239 1420.94 665.231C1417.5 663.768 1413.84 663.113 1410.18 663.302C1406.52 663.492 1402.93 664.522 1399.61 666.335C1396.29 668.147 1393.31 670.707 1390.84 673.866C1388.36 677.026 1386.45 680.724 1385.2 684.749C1383.95 688.774 1383.39 693.048 1383.55 697.325C1383.72 701.603 1384.6 705.801 1386.15 709.679C1387.71 713.557 1389.9 717.04 1392.6 719.928C1395.31 722.816 1398.48 725.053 1401.92 726.51H1401.92Z" stroke="#3F3D56" stroke-miterlimit="10"/>
<path d="M1371.55 786.474C1372.66 793.836 1375.9 800.528 1380.73 805.43C1385.56 810.331 1391.68 813.144 1398.07 813.395C1404.47 813.647 1410.74 811.322 1415.84 806.812C1420.94 802.301 1424.56 795.878 1426.08 788.62C1427.61 781.363 1426.96 773.712 1424.23 766.951C1421.51 760.189 1416.87 754.729 1411.11 751.485C1405.35 748.242 1398.81 747.412 1392.58 749.135C1386.36 750.858 1380.83 755.03 1376.93 760.95L1389.36 782.808L1372.38 771.207C1371.06 776.146 1370.78 781.382 1371.55 786.474V786.474Z" fill="#57B894"/>
<path d="M1372.7 782.155C1373.81 789.516 1377.05 796.209 1381.88 801.111C1386.71 806.012 1392.83 808.824 1399.22 809.076C1405.62 809.328 1411.89 807.003 1416.99 802.492C1422.09 797.981 1425.71 791.559 1427.23 784.301C1428.76 777.043 1428.11 769.393 1425.38 762.631C1422.66 755.87 1418.02 750.41 1412.26 747.166C1406.5 743.922 1399.96 743.092 1393.73 744.816C1387.51 746.539 1381.98 750.711 1378.08 756.631L1390.51 778.489L1373.52 766.887C1372.21 771.826 1371.93 777.062 1372.7 782.155V782.155Z" stroke="#3F3D56" stroke-miterlimit="10"/>
<path d="M12.0724 736.485C14.74 737.619 17.5963 738.012 20.4163 737.636C23.2363 737.259 25.9429 736.122 28.3227 734.314C30.7025 732.507 32.6905 730.078 34.13 727.219C35.5695 724.361 36.4211 721.151 36.6177 717.842C36.8143 714.533 36.3506 711.216 35.263 708.152C34.1755 705.089 32.4938 702.362 30.3506 700.188C28.2075 698.013 25.6614 696.45 22.913 695.621C20.1646 694.793 17.2891 694.721 14.5131 695.413L14.9718 706.436L10.5088 696.989C6.12861 699.394 2.74474 703.733 1.10079 709.052C0.516959 710.915 0.162031 712.865 0.0465981 714.845C-0.235109 719.489 0.786474 724.114 2.95653 728.02C5.12659 731.925 8.32686 734.897 12.0724 736.485V736.485Z" fill="#57B894"/>
<path d="M34.1557 864.331C32.5802 854.957 39.4069 846.646 46.1502 841.244C52.8934 835.842 60.7725 830.535 63.0733 821.367C66.3799 808.192 56.5304 796.126 48.8642 785.721C43.1767 777.999 38.2924 769.517 34.3136 760.452C32.5838 756.891 31.4057 753.001 30.8333 748.962C30.2289 743.122 31.8345 737.31 33.4521 731.74C38.8409 713.182 44.6025 694.78 50.7369 676.534" stroke="#3F3D56" stroke-miterlimit="10"/>
<path d="M12.8274 733.647C15.495 734.781 18.3513 735.174 21.1713 734.798C23.9914 734.421 26.6979 733.284 29.0777 731.476C31.4575 729.669 33.4455 727.24 34.885 724.381C36.3244 721.523 37.176 718.312 37.3727 715.004C37.5693 711.695 37.1055 708.378 36.018 705.315C34.9304 702.251 33.2488 699.524 31.1056 697.35C28.9625 695.175 26.4164 693.612 23.668 692.783C20.9196 691.955 18.0441 691.883 15.2681 692.575L15.7268 703.598L11.2638 694.151C6.88362 696.556 3.49974 700.895 1.8558 706.214C1.27197 708.077 0.917048 710.027 0.801609 712.007C0.519883 716.651 1.54146 721.276 3.71152 725.182C5.88159 729.087 9.08186 732.059 12.8274 733.647V733.647Z" stroke="#3F3D56" stroke-miterlimit="10"/>
<path d="M31.9156 672.727C32.9625 669.352 34.7195 666.339 37.0248 663.966C39.3301 661.592 42.1095 659.935 45.1069 659.147L46.6159 669.626L49.4136 658.62C53.298 658.687 57.0636 660.196 60.1667 662.927C63.2698 665.658 65.5499 669.471 66.6777 673.815C67.8056 678.159 67.7228 682.809 66.4414 687.095C65.1599 691.38 62.7462 695.079 59.5485 697.657C56.3509 700.235 52.5349 701.558 48.6515 701.437C44.768 701.315 41.0181 699.755 37.943 696.981C34.868 694.207 32.627 690.362 31.5436 686.003C30.4602 681.644 30.5905 676.994 31.9156 672.727V672.727Z" fill="#57B894"/>
<path d="M32.922 668.943C33.9688 665.568 35.7259 662.555 38.0312 660.182C40.3364 657.808 43.1158 656.151 46.1132 655.363L47.6222 665.842L50.4199 654.836C54.3043 654.904 58.0699 656.412 61.1731 659.143C64.2762 661.874 66.5563 665.687 67.6841 670.031C68.8119 674.375 68.7292 679.025 67.4477 683.311C66.1663 687.596 63.7525 691.295 60.5549 693.873C57.3573 696.451 53.5413 697.775 49.6578 697.653C45.7743 697.532 42.0244 695.971 38.9494 693.197C35.8744 690.423 33.6334 686.578 32.55 682.219C31.4666 677.86 31.5969 673.211 32.922 668.943V668.943Z" stroke="#3F3D56" stroke-miterlimit="10"/>
<path d="M45.6471 785.934C49.8776 787.727 54.5249 787.638 58.7031 785.685C62.8814 783.731 66.2984 780.05 68.3029 775.342C70.3074 770.634 70.7593 765.228 69.5723 760.156C68.3854 755.083 65.6426 750.699 61.8668 747.837L59.7171 756.295L58.1928 745.692C58.1777 745.684 58.1621 745.677 58.1461 745.672C55.8833 744.71 53.4804 744.279 51.075 744.403C48.6695 744.527 46.3085 745.204 44.1269 746.395C41.9454 747.586 39.9861 749.267 38.3609 751.343C36.7358 753.419 35.4767 755.849 34.6555 758.494C33.8344 761.139 33.4674 763.947 33.5755 766.758C33.6836 769.569 34.2646 772.327 35.2854 774.875C36.3061 777.424 37.7466 779.712 39.5246 781.609C41.3025 783.507 43.383 784.976 45.6471 785.934V785.934Z" fill="#57B894"/>
<path d="M46.5191 782.101C50.7496 783.894 55.3969 783.805 59.5751 781.852C63.7533 779.899 67.1704 776.217 69.1749 771.509C71.1794 766.801 71.6313 761.395 70.4443 756.323C69.2574 751.251 66.5146 746.866 62.7388 744.005L60.5891 752.462L59.0647 741.86C59.0497 741.851 59.0341 741.844 59.0181 741.839C56.7557 740.88 54.3539 740.451 51.9496 740.577C49.5454 740.702 47.1859 741.38 45.0058 742.571C40.603 744.977 37.1984 749.328 35.5409 754.667C33.8834 760.006 34.1089 765.896 36.1677 771.041C38.2265 776.186 41.95 780.164 46.5191 782.101V782.101Z" stroke="#3F3D56" stroke-miterlimit="10"/>
<path d="M26.5673 821.498C27.2947 826.335 29.4231 830.732 32.5957 833.952C35.7682 837.173 39.7919 839.021 43.9919 839.186C48.1919 839.351 52.3128 837.824 55.6636 834.86C59.0143 831.896 61.3911 827.677 62.3953 822.908C63.3995 818.14 62.97 813.113 61.1789 808.671C59.3878 804.229 56.3441 800.641 52.5581 798.51C48.772 796.379 44.474 795.834 40.3849 796.966C36.2957 798.098 32.664 800.839 30.099 804.729L38.2644 819.09L27.1073 811.467C26.2422 814.712 26.057 818.152 26.5673 821.498V821.498Z" fill="#57B894"/>
<path d="M27.322 818.66C28.0494 823.497 30.1779 827.894 33.3504 831.114C36.5229 834.335 40.5466 836.183 44.7466 836.348C48.9467 836.513 53.0676 834.986 56.4183 832.022C59.7691 829.058 62.1458 824.839 63.15 820.07C64.1542 815.302 63.7248 810.275 61.9337 805.833C60.1426 801.391 57.0988 797.803 53.3128 795.672C49.5268 793.541 45.2288 792.995 41.1396 794.128C37.0505 795.26 33.4188 798.001 30.8537 801.89L39.0192 816.252L27.8621 808.629C26.997 811.874 26.8118 815.314 27.322 818.66V818.66Z" stroke="#3F3D56" stroke-miterlimit="10"/>
<path d="M644.609 534.242C657.192 534.242 667.394 518.816 667.394 499.786C667.394 480.757 657.192 465.331 644.609 465.331C632.025 465.331 621.824 480.757 621.824 499.786C621.824 518.816 632.025 534.242 644.609 534.242Z" fill="#2F2E41"/>
<path d="M768.586 535.025C781.169 535.025 791.371 519.599 791.371 500.569C791.371 481.54 781.169 466.114 768.586 466.114C756.002 466.114 745.801 481.54 745.801 500.569C745.801 519.599 756.002 535.025 768.586 535.025Z" fill="#2F2E41"/>
<path d="M751.162 602.37C751.162 617.938 732.559 630.561 709.613 630.561C686.667 630.561 668.064 617.938 668.064 602.37C668.064 588.885 682.016 577.609 700.66 574.852C703.628 574.395 706.619 574.17 709.613 574.179C714.629 574.16 719.632 574.79 724.53 576.058C740.104 580.115 751.162 590.373 751.162 602.37Z" fill="#2F2E41"/>
<path d="M649.97 526.411C662.554 526.411 672.755 510.985 672.755 491.956C672.755 472.926 662.554 457.5 649.97 457.5C637.386 457.5 627.185 472.926 627.185 491.956C627.185 510.985 637.386 526.411 649.97 526.411Z" stroke="#3F3D56" stroke-miterlimit="10"/>
<path d="M773.947 527.194C786.531 527.194 796.732 511.768 796.732 492.739C796.732 473.709 786.531 458.283 773.947 458.283C761.363 458.283 751.162 473.709 751.162 492.739C751.162 511.768 761.363 527.194 773.947 527.194Z" stroke="#3F3D56" stroke-miterlimit="10"/>
<path d="M714.974 622.73C737.921 622.73 756.523 610.108 756.523 594.539C756.523 578.97 737.921 566.348 714.974 566.348C692.027 566.348 673.425 578.97 673.425 594.539C673.425 610.108 692.027 622.73 714.974 622.73Z" stroke="#3F3D56" stroke-miterlimit="10"/>
<path d="M725.026 578.408C725.037 580.377 724.404 582.277 723.257 583.72C722.715 584.411 722.057 584.964 721.323 585.343C720.59 585.723 719.797 585.921 718.995 585.925H705.592C703.94 585.858 702.379 585.03 701.249 583.621C700.118 582.212 699.511 580.338 699.56 578.408C699.554 576.881 699.936 575.386 700.66 574.114C703.626 573.627 706.617 573.386 709.613 573.396C714.635 573.377 719.642 574.05 724.53 575.401C724.861 576.356 725.029 577.377 725.026 578.408Z" fill="white"/>
<path d="M649.97 490.389C653.671 490.389 656.671 486.883 656.671 482.559C656.671 478.234 653.671 474.728 649.97 474.728C646.269 474.728 643.268 478.234 643.268 482.559C643.268 486.883 646.269 490.389 649.97 490.389Z" fill="white"/>
<path d="M774.617 490.389C778.318 490.389 781.318 486.883 781.318 482.559C781.318 478.234 778.318 474.728 774.617 474.728C770.916 474.728 767.916 478.234 767.916 482.559C767.916 486.883 770.916 490.389 774.617 490.389Z" fill="white"/>
<path opacity="0.3" d="M781.318 563.999C785.02 563.999 788.02 560.493 788.02 556.168C788.02 551.843 785.02 548.337 781.318 548.337C777.617 548.337 774.617 551.843 774.617 556.168C774.617 560.493 777.617 563.999 781.318 563.999Z" fill="#6C63FF"/>
<path opacity="0.3" d="M617.803 563.999C621.504 563.999 624.504 560.493 624.504 556.168C624.504 551.843 621.504 548.337 617.803 548.337C614.102 548.337 611.101 551.843 611.101 556.168C611.101 560.493 614.102 563.999 617.803 563.999Z" fill="#6C63FF"/>
</g>
<defs>
<clipPath id="clip0">
<rect width="1440" height="915" fill="white"/>
</clipPath>
</defs>
</svg>
