<svg width="58" height="51" viewBox="0 0 58 51" fill="none" xmlns="http://www.w3.org/2000/svg">
<ellipse cx="29.1253" cy="22.8156" rx="19.5783" ry="21.8597" fill="#F4DE14"/>
<path d="M0.791931 38.9544L47.6706 33.2338L57.4586 38.9544L33.5067 45.888L6.04967 50.9559L0.791931 38.9544Z" fill="#2D9CDB"/>
<path d="M46.7846 24.3846L51.5492 12.9444L48.6139 5.89657L43.8493 17.3368L46.7846 24.3846Z" fill="#28D2E4"/>
<path d="M43.8492 17.3368L38.783 31.7388L40.7864 36.5494L46.7846 24.3846L43.8492 17.3368Z" fill="#13829B"/>
<path d="M52.2684 11.2177C53.0789 9.27157 53.0789 6.11603 52.2684 4.16971C51.4578 2.22338 50.1436 2.22338 49.333 4.16971L48.614 5.89627L51.5493 12.9443L52.2684 11.2177Z" fill="#2D9CDB"/>
<path d="M40.7864 36.5494C40.5736 36.0385 38.9889 32.2334 38.7829 31.7388L36.1304 35.8704L36.1374 42.9016L39.0658 42.9182L40.7864 36.5494Z" fill="#FFDB77"/>
<path d="M52.6178 3.33073C51.6158 0.924953 49.9855 0.924794 48.9837 3.33073C41.584 21.0972 45.0245 12.1569 38.4527 30.8389L35.8614 34.8749C35.7206 35.0942 35.6358 35.4701 35.6362 35.8732L35.6432 42.901C35.6432 42.9015 35.6432 42.902 35.6432 42.9023V42.9043C35.644 43.5609 35.8664 44.0868 36.1362 44.0881L39.0645 44.1048C39.0649 44.1048 39.0653 44.1048 39.0657 44.1048C39.2331 44.1048 39.3892 43.9014 39.4803 43.5641L41.1611 37.3427C48.8882 21.6716 45.1664 29.9482 52.6178 12.0566C53.6197 9.65098 53.6197 5.7365 52.6178 3.33073ZM46.7846 22.7065L44.5482 17.3366L48.614 7.57429L50.8504 12.9442L46.7846 22.7065ZM38.7977 41.7302L37.3277 41.7218L38.5688 38.7418C38.7618 38.2784 38.7618 37.527 38.5688 37.0638C38.3758 36.6004 38.063 36.6002 37.8699 37.0638L36.6288 40.0437L36.6253 36.514L38.7163 33.257L40.1541 36.7094L38.7977 41.7302ZM40.8146 34.939L39.4536 31.6711L43.8799 19.0883L46.055 24.3109L40.8146 34.939ZM51.9189 10.3786L51.5493 11.2662L49.3128 5.89629L49.6825 5.00888C50.3005 3.52501 51.3009 3.52454 51.9189 5.00888C52.5355 6.48927 52.5355 8.89821 51.9189 10.3786Z" fill="#2D9CDB"/>
<path d="M11.8916 23.6099L8.96784 28.7987L19.4604 40.2439H2.51884L11.8916 23.6099Z" fill="#2D9CDB"/>
</svg>
